<svg xmlns="http://www.w3.org/2000/svg" viewBox="0 0 64 64">
  <defs>
    <!-- Gradient -->
    <linearGradient id="grad" x1="0" y1="0" x2="1" y2="1">
      <stop offset="0" stop-color="#38bdf8"></stop>
      <stop offset="1" stop-color="#7c3aed"></stop>
    </linearGradient>
    <!-- Glow -->
    <filter id="glow" x="-50%" y="-50%" width="200%" height="200%">
      <feGaussianBlur in="SourceGraphic" stdDeviation="1.5" result="blur"></feGaussianBlur>
      <feMerge>
        <feMergeNode in="blur"></feMergeNode>
        <feMergeNode in="SourceGraphic"></feMergeNode>
      </feMerge>
    </filter>
  </defs>

  <!-- Dark rounded background -->
  <rect x="4" y="4" width="56" height="56" rx="14" fill="#0b0f16"></rect>

  <!-- Centered BR -->
  <g fill="url(#grad)" filter="url(#glow)" transform="translate(12,12) scale(0.65)" fill-rule="evenodd">

    <!-- B -->
    <path d="M18 18h12c6 0 10 3 10 8 0 3-1.5 5-5 6 4 1 7 3 7 7s-3.5 8-9 8H18V18z
             M28 28c3.5 0 5-1.5 5-3.5s-1.5-3.5-5-3.5h-5v7h5z
             M29 41c3.5 0 6-1.5 6-4s-2.5-4-6-4h-6v8h6z"></path>

    <!-- R with gap -->
    <path d="M42 32h7c6 0 10 3 10 8 0 3-1.5 5.5-4 7l6 9h-9l-6-8h-4v8h-8V32h8zm7 11c3 0 5-1.5 5-4s-2-4-5-4h-6v8h6z"></path>
  </g>
</svg>
